<svg viewBox="64 104 352 188" xmlns="http://www.w3.org/2000/svg">
<g stroke-linejoin="round" stroke-linecap="round" fill="none">

  <path d="M134 168 L168 144 L202 168" stroke="#BE3A2B" stroke-width="13"/>
  <path d="M346 168 L312 144 L278 168" stroke="#BE3A2B" stroke-width="13"/>

  <path d="
M16 -4.5 L98 -4.5 Q102 -4.5 102 0 Q102 4.5 98 4.5 L16 4.5 Z
M4 -20 Q19 -20 19 -7 L19 7 Q19 20 4 20 L-3 20
C-14 20 -24 12 -25 1 L-15 -2 C-21 -4 -21 -7 -18 -9 L-25 -12
C-21 -19 -12 -20 4 -20 Z
" fill="#21256B" stroke="none" transform="translate(88 214) rotate(-34) scale(0.58)"/>
  <path d="
M16 -4.5 L98 -4.5 Q102 -4.5 102 0 Q102 4.5 98 4.5 L16 4.5 Z
M4 -20 Q19 -20 19 -7 L19 7 Q19 20 4 20 L-3 20
C-14 20 -24 12 -25 1 L-15 -2 C-21 -4 -21 -7 -18 -9 L-25 -12
C-21 -19 -12 -20 4 -20 Z
" fill="#BE3A2B"  stroke="none" transform="translate(392 214) rotate(214) scale(0.58)"/>

  <path d="M108 210 L240 120 L372 210" stroke="#2B57B0" stroke-width="16"/>

  <!-- DORMER: single clean gable house -->
  <path d="M240 150 L210 176 L210 204 L270 204 L270 176 Z" fill="#FFFFFF" stroke="#2B57B0" stroke-width="9"/>
  <rect x="227" y="174" width="26" height="26" fill="#FFFFFF" stroke="#2B57B0" stroke-width="5"/>
  <line x1="240" y1="174" x2="240" y2="200" stroke="#2B57B0" stroke-width="4.5"/>
  <line x1="227" y1="187" x2="253" y2="187" stroke="#2B57B0" stroke-width="4.5"/>

  <path d="M114 222 C168 252 312 252 366 222" stroke="#2B57B0" stroke-width="11"/>
</g>
</svg>