<svg xmlns="http://www.w3.org/2000/svg" viewBox="0 0 640 240" width="640" height="240"><defs></defs><g transform="translate(8 8) scale(1.0)"><path d="M100 8 L186 30 V120 C186 168 148 198 100 216 C52 198 14 168 14 120 V30 Z" fill="#2B5BA7"></path><path d="M100 20 L176 39 V119 C176 160 144 186 100 202 C56 186 24 160 24 119 V39 Z" fill="#FFFFFF"></path><g transform="translate(100 104) rotate(-34)" fill="#2B5BA7"><rect x="-22" y="-58" width="44" height="20" rx="4"></rect><rect x="-5" y="-40" width="10" height="74" rx="4"></rect></g><g transform="translate(100 104) rotate(34)" fill="#C8332B"><rect x="-22" y="-58" width="44" height="20" rx="4"></rect><rect x="-5" y="-40" width="10" height="74" rx="4"></rect></g><path d="M100 56 L138 96 V150 H62 V96 Z" fill="#2B5BA7"></path><rect x="84" y="110" width="32" height="32" fill="#FFFFFF"></rect><line x1="100" y1="110" x2="100" y2="142" stroke="#2B5BA7" stroke-width="4"></line><line x1="84" y1="126" x2="116" y2="126" stroke="#2B5BA7" stroke-width="4"></line></g><g transform="translate(232 0)" font-family="Archivo, Arial, sans-serif"><text x="0" y="96" font-weight="800" font-size="42" letter-spacing="0.5" fill="#15233D">MIKE <tspan fill="#C8332B">&amp;</tspan> SONS</text><text x="-3" y="160" font-weight="900" font-size="86" letter-spacing="-1" fill="#15233D">ROOFING</text><text x="2" y="190" font-family="JetBrains Mono, monospace" font-weight="700" font-size="17" letter-spacing="2" fill="#C8332B">ROOFING · REPAIRS · RE-ROOFS</text></g></svg>