<svg xmlns="http://www.w3.org/2000/svg" viewBox="0 0 200 224" width="200" height="224"><path d="M100 8 L186 30 V120 C186 168 148 198 100 216 C52 198 14 168 14 120 V30 Z" fill="#3E73C4"></path><path d="M100 20 L176 39 V119 C176 160 144 186 100 202 C56 186 24 160 24 119 V39 Z" fill="#FFFFFF"></path><g transform="translate(100 104) rotate(-34)" fill="#2B5BA7"><rect x="-22" y="-58" width="44" height="20" rx="4"></rect><rect x="-5" y="-40" width="10" height="74" rx="4"></rect></g><g transform="translate(100 104) rotate(34)" fill="#C8332B"><rect x="-22" y="-58" width="44" height="20" rx="4"></rect><rect x="-5" y="-40" width="10" height="74" rx="4"></rect></g><path d="M100 56 L138 96 V150 H62 V96 Z" fill="#2B5BA7"></path><rect x="84" y="110" width="32" height="32" fill="#FFFFFF"></rect><line x1="100" y1="110" x2="100" y2="142" stroke="#2B5BA7" stroke-width="4"></line><line x1="84" y1="126" x2="116" y2="126" stroke="#2B5BA7" stroke-width="4"></line></svg>